<svg width="137" height="20" viewBox="0 0 137 20" fill="none" xmlns="http://www.w3.org/2000/svg">
  <path fill-rule="evenodd" clip-rule="evenodd"
    d="M38.4672 9.09005C38.4694 9.07422 38.4714 9.0596 38.4735 9.04438C38.4906 8.93742 38.5054 8.83027 38.5189 8.72171C38.5211 8.70369 38.5239 8.68606 38.5267 8.66784C38.5282 8.65502 38.5288 8.6414 38.5302 8.62778C38.5653 8.51103 38.5774 8.38859 38.5658 8.26726C38.5658 8.24362 38.5686 8.21999 38.57 8.19615C38.577 8.0894 38.584 7.98144 38.5877 7.87309C38.5877 7.84465 38.5897 7.8158 38.5913 7.78776C38.5947 7.66278 38.6269 7.55883 38.6263 7.43165C38.6263 7.40461 38.618 7.35915 38.618 7.33151C38.616 7.21794 38.612 7.1184 38.6078 7.00243C38.6305 6.98941 38.6088 6.94615 38.6078 6.92352C38.6015 6.79233 38.5859 6.66314 38.5738 6.53075C38.5716 6.50131 38.571 6.45063 38.5682 6.41979C38.5567 6.29541 38.5481 6.20388 38.5324 6.07769C38.5302 6.06488 38.5197 6.03103 38.5191 6.01761C38.5008 5.88161 38.4833 5.77065 38.4606 5.63225C38.455 5.60061 38.4505 5.54993 38.4455 5.51769C38.42 5.37748 38.3592 5.21966 38.3295 5.07705L36.8094 5.33062C36.8363 5.4608 36.8597 5.59099 36.8816 5.71838C36.8872 5.74842 36.8928 5.77846 36.8971 5.80831C36.9184 5.93469 36.9373 6.06087 36.9538 6.18565C36.9552 6.19907 36.9574 6.21349 36.958 6.22751C36.9729 6.34168 36.9856 6.45517 36.9962 6.568C36.9992 6.59624 37.0012 6.62469 37.004 6.65212C37.0141 6.7743 37.0241 6.89447 37.029 7.01425C37.0304 7.03628 37.031 7.05851 37.0324 7.07994C37.0368 7.18509 37.0402 7.28945 37.041 7.39299C37.041 7.41903 37.0424 7.44447 37.0424 7.46991C37.0424 7.58667 37.0424 7.70264 37.0374 7.81721C37.0374 7.84325 37.036 7.86868 37.0352 7.89412C37.031 7.99426 37.026 8.09581 37.0191 8.19595C37.0177 8.21598 37.0161 8.23601 37.0155 8.25604C37.0069 8.3692 36.9954 8.48097 36.9829 8.59233C36.9801 8.61877 36.9765 8.645 36.9729 8.67244C36.961 8.77519 36.9467 8.87794 36.9304 8.97929C36.929 8.9899 36.9276 9.00192 36.9254 9.01313C36.9071 9.12269 36.8872 9.23185 36.8651 9.33981C36.8603 9.36504 36.8552 9.39068 36.8494 9.41552C36.8382 9.4726 36.8241 9.52908 36.8106 9.58556C36.7871 9.68571 36.7615 9.78585 36.7354 9.88499C36.7227 9.92906 36.7107 9.97312 36.6986 10.0168C36.6646 10.1342 36.6276 10.2501 36.5888 10.3653C36.5824 10.3853 36.5768 10.4053 36.5705 10.4254C36.5237 10.5588 36.4732 10.69 36.4201 10.8193C36.4061 10.8542 36.3912 10.8894 36.3755 10.9245C36.3353 11.0194 36.2934 11.1138 36.2502 11.2049C36.2301 11.245 36.21 11.2862 36.1913 11.3269C36.1461 11.419 36.0987 11.5101 36.049 11.6003C36.0313 11.6319 36.0158 11.6642 35.9973 11.6958C35.9301 11.8146 35.8611 11.931 35.789 12.0457C35.7749 12.0681 35.7592 12.0902 35.7445 12.1136C35.6842 12.2049 35.6239 12.2955 35.5603 12.384C35.5354 12.4199 35.5093 12.4547 35.4831 12.4898C35.4256 12.5683 35.3661 12.6446 35.3068 12.7197C35.2813 12.7524 35.2555 12.7848 35.2294 12.8168C35.149 12.9146 35.0659 13.0107 34.9795 13.1046C34.9752 13.1106 34.9705 13.1162 34.9654 13.1215C34.8753 13.2198 34.7816 13.3151 34.6861 13.4085C34.6563 13.4379 34.6258 13.4656 34.596 13.4938C34.5266 13.5593 34.4581 13.6232 34.3863 13.6865C34.3525 13.7165 34.3185 13.7463 34.2844 13.7758C34.2057 13.8425 34.1251 13.9074 34.0431 13.9713C34.0191 13.9913 33.9942 14.0114 33.9695 14.0314C33.8633 14.1127 33.7547 14.1914 33.6437 14.2675C33.6176 14.2858 33.5907 14.3026 33.5633 14.3206C33.4769 14.3783 33.3882 14.4354 33.2997 14.4896C33.2621 14.5129 33.2245 14.5355 33.1863 14.5575C33.1012 14.6077 33.0148 14.6568 32.9271 14.7046C32.8931 14.723 32.8584 14.7422 32.8244 14.7604C32.7037 14.8235 32.5801 14.8852 32.4546 14.9433C32.4462 14.9469 32.4375 14.9507 32.4285 14.9541C32.3137 15.0072 32.1966 15.0571 32.0778 15.1049C32.031 15.125 31.9837 15.1412 31.9371 15.1592C31.85 15.1931 31.7615 15.2259 31.6714 15.2566C31.6212 15.274 31.5695 15.2908 31.5184 15.3078C31.4312 15.3367 31.3413 15.3631 31.252 15.3893C31.2003 15.4044 31.1487 15.419 31.0962 15.4332C30.9999 15.4598 30.9021 15.4835 30.8044 15.5063C30.7584 15.5169 30.7137 15.5287 30.6677 15.5384C30.5296 15.569 30.3906 15.5954 30.2497 15.6185C30.2213 15.6237 30.193 15.6275 30.1648 15.6321C30.0492 15.6503 29.9338 15.6667 29.817 15.6808C29.7715 15.6864 29.7269 15.6916 29.6816 15.696C29.5697 15.7084 29.4571 15.718 29.3438 15.7264C29.3077 15.7288 29.2715 15.7322 29.2361 15.7338C29.0817 15.7435 28.9256 15.7497 28.7692 15.7519C28.6743 15.7531 28.5786 15.7531 28.4823 15.7519C28.4533 15.7519 28.4235 15.7501 28.3938 15.7491C28.3307 15.7479 28.2671 15.7461 28.2026 15.7433C28.1607 15.7415 28.1181 15.7395 28.0751 15.7364C28.0204 15.7338 27.9659 15.7308 27.9106 15.7268C27.8724 15.724 27.832 15.7208 27.793 15.7174C27.7158 15.7112 27.64 15.7048 27.5628 15.6974C27.4689 15.6878 27.376 15.6765 27.2839 15.6635C27.2525 15.6589 27.2222 15.6545 27.1916 15.6493C27.1313 15.6403 27.0709 15.6319 27.0106 15.6211C26.9738 15.6149 26.937 15.6077 26.9008 15.6011C26.847 15.591 26.7945 15.581 26.7422 15.57C26.7046 15.5622 26.667 15.5536 26.6296 15.5454C26.5785 15.5338 26.5275 15.5221 26.4772 15.5097C26.4446 15.5017 26.4114 15.4939 26.3795 15.4853C26.286 15.4611 26.1931 15.4356 26.1012 15.4084C26.0905 15.405 26.0791 15.4022 26.0678 15.3984C25.9673 15.3677 25.8667 15.3351 25.7662 15.3C25.7415 15.2914 25.7159 15.282 25.6904 15.2734C25.6082 15.2435 25.5267 15.2133 25.4459 15.1806C25.4258 15.1734 25.4057 15.166 25.388 15.1582C25.2923 15.1182 25.1968 15.0781 25.1025 15.036C25.084 15.027 25.0649 15.0186 25.0472 15.0102C24.9354 14.9593 24.8248 14.9056 24.7156 14.85C24.7114 14.8476 24.7078 14.8458 24.7043 14.8442C24.5946 14.7877 24.4876 14.7288 24.3806 14.6685C24.3605 14.6561 24.3404 14.6453 24.3203 14.6335C24.217 14.5734 24.117 14.5133 24.0171 14.4504L23.9568 14.4113C23.8964 14.3735 23.8391 14.3334 23.7798 14.2938C23.7013 14.2413 23.6231 14.1874 23.5454 14.1321C23.4969 14.0977 23.4489 14.0638 23.4014 14.0288C23.3236 13.9711 23.2464 13.913 23.1706 13.8537C23.1265 13.8197 23.0813 13.7858 23.0381 13.7508C22.9558 13.6853 22.8744 13.6176 22.793 13.5505C22.7568 13.52 22.7194 13.4904 22.6832 13.4586C22.5683 13.3608 22.4552 13.2607 22.3438 13.1581C22.341 13.1567 22.3387 13.1547 22.3367 13.1523C22.2101 13.0371 22.0854 12.919 21.9607 12.7986C21.5037 12.355 20.9733 11.9426 20.551 11.4767L20.5309 11.4535L20.8058 11.7631L20.8305 11.7907C20.8707 11.836 20.9109 11.8817 20.9512 11.9265C20.9674 11.944 20.9829 11.9614 20.9992 11.979C21.0193 12.0027 21.041 12.0263 21.0622 12.0497C21.116 12.1098 21.1713 12.1671 21.2258 12.2258C21.2803 12.2845 21.3358 12.3459 21.3917 12.406C21.4695 12.4898 21.5489 12.5715 21.6284 12.6536C21.6821 12.7095 21.7345 12.766 21.7892 12.8208C21.8771 12.9096 21.9648 12.9977 22.0534 13.0846C22.0995 13.1293 22.1439 13.1804 22.1908 13.2248C22.3069 13.3605 22.438 13.4829 22.5814 13.5895C22.5849 13.593 22.5973 13.6042 22.6003 13.6084C22.7228 13.7213 22.8288 13.8549 22.9757 13.9449C23.016 13.9787 23.0638 14.0029 23.104 14.0368C23.1702 14.0923 23.2311 14.1594 23.2985 14.2136C23.3198 14.2311 23.3324 14.2485 23.3552 14.2661C23.3861 14.3282 23.4609 14.345 23.5098 14.3827C23.5926 14.4466 23.669 14.4977 23.7533 14.5595C23.8058 14.5978 23.8711 14.6383 23.925 14.6759C23.9598 14.7016 23.9936 14.736 24.0288 14.7606C24.077 14.7939 24.1277 14.8255 24.1759 14.8584C24.2105 14.8808 24.2457 14.8946 24.2799 14.9167C24.3141 14.9387 24.3402 14.9607 24.3722 14.9806C24.3935 14.9942 24.414 15.012 24.4345 15.0256C24.5457 15.0945 24.6396 15.152 24.7516 15.2173C24.7594 15.2219 24.7691 15.2373 24.7761 15.2417C24.7882 15.2487 24.8137 15.2521 24.8252 15.2588C24.9434 15.3261 25.0263 15.3869 25.1469 15.4486C25.1497 15.4502 25.1837 15.4532 25.1871 15.4542C25.3062 15.5155 25.4025 15.5826 25.5249 15.6385C25.537 15.6447 25.5619 15.6567 25.574 15.6629C25.5714 15.7012 25.6114 15.6746 25.6192 15.678C25.7198 15.7236 25.8225 15.7248 25.9267 15.7667C25.9325 15.7689 25.9391 15.7703 25.9456 15.7731C25.9604 15.7793 25.9739 15.7855 25.9896 15.7919C26.0769 15.8264 26.1631 15.8604 26.251 15.8921C26.2681 15.8981 26.2878 15.9025 26.3049 15.9087C26.3161 15.9125 26.3274 15.9161 26.3389 15.9195C26.4472 15.9574 26.5562 15.9936 26.6668 16.0269C26.6692 16.0273 26.6716 16.0281 26.6738 16.0291C26.6825 16.0319 26.6907 16.0337 26.6994 16.0365C26.7999 16.0665 26.9033 16.0948 27.0068 16.121C27.0225 16.1252 27.0372 16.1296 27.0529 16.1336C27.0685 16.1376 27.0896 16.142 27.1081 16.1468C27.1646 16.1609 27.2213 16.1737 27.2789 16.1869C27.3042 16.1925 27.3277 16.1991 27.3524 16.2037C27.3673 16.2071 27.3822 16.2099 27.3971 16.2127C27.4552 16.2254 27.5153 16.2366 27.5734 16.2474C27.6018 16.2528 27.6295 16.2592 27.6585 16.2642L27.6896 16.2686C27.7542 16.28 27.8201 16.2886 27.8851 16.2999C27.9142 16.3037 27.9418 16.3095 27.9709 16.3133C27.9766 16.3138 27.9822 16.3146 27.9878 16.3157C28.0884 16.3291 28.1877 16.3415 28.2894 16.3517C28.3007 16.3517 28.3122 16.3545 28.3226 16.3557C28.3331 16.3569 28.3441 16.3573 28.3554 16.3585C28.3666 16.3597 28.3773 16.3601 28.388 16.3619L28.4205 16.365C28.4587 16.3682 28.4985 16.3704 28.5366 16.3738C28.5657 16.3762 28.5941 16.3796 28.6224 16.3818C28.6367 16.383 28.6508 16.383 28.6648 16.384C28.6827 16.384 28.7002 16.3874 28.7187 16.3884C28.7676 16.392 28.8172 16.3936 28.8661 16.3964C28.8945 16.3976 28.9228 16.3998 28.9512 16.4014C28.9602 16.4014 28.9695 16.4014 28.9781 16.4014C28.9908 16.4014 29.0028 16.4032 29.0155 16.4038C29.0714 16.406 29.1267 16.4066 29.1834 16.4076C29.2146 16.409 29.2463 16.4104 29.2769 16.411H29.3089C29.4066 16.4124 29.5037 16.4124 29.6 16.411C29.6402 16.411 29.6772 16.4088 29.7154 16.4086C29.7536 16.4084 29.7926 16.406 29.83 16.4052C29.8674 16.4044 29.9066 16.4024 29.9448 16.4006C29.9831 16.3988 30.0207 16.3966 30.0583 16.395C30.0745 16.395 30.0894 16.3922 30.1051 16.3916C30.1453 16.3888 30.1879 16.3854 30.2282 16.382C30.3054 16.377 30.3826 16.3724 30.4592 16.365C30.5038 16.3611 30.5485 16.3547 30.5931 16.3499C30.6414 16.3447 30.6902 16.3391 30.7391 16.3333C30.7765 16.3283 30.8155 16.3255 30.8537 16.3203C30.9424 16.3085 31.0294 16.2939 31.1179 16.2802C31.1477 16.2756 31.1796 16.2718 31.2094 16.2666L31.242 16.2614C31.3708 16.2394 31.4981 16.2147 31.624 16.1875C31.6383 16.1845 31.6523 16.1813 31.6666 16.1779C31.7139 16.1677 31.7607 16.1553 31.8088 16.144C31.8892 16.1258 31.9696 16.108 32.0482 16.0874C32.076 16.0807 32.1021 16.0717 32.1287 16.0643C32.1868 16.0491 32.2435 16.0321 32.3002 16.0159C32.3569 15.9996 32.4092 15.9858 32.4623 15.9694C32.5041 15.9564 32.5451 15.9417 32.5863 15.9281C32.6436 15.9095 32.7009 15.8909 32.7576 15.8706C32.7938 15.858 32.8312 15.8472 32.8674 15.8344C32.9255 15.8144 32.9816 15.7903 33.0383 15.7683C33.095 15.7463 33.1459 15.7282 33.1992 15.706C33.2193 15.6976 33.2416 15.6902 33.2635 15.6812C33.3661 15.6393 33.4668 15.594 33.5673 15.5484L33.6027 15.5332C33.6047 15.5328 33.6064 15.5318 33.6078 15.5303C33.7431 15.4683 33.8756 15.402 34.0065 15.3331C34.0467 15.313 34.0845 15.2912 34.1233 15.27C34.217 15.2197 34.3089 15.167 34.4012 15.1133C34.4428 15.0883 34.4854 15.0635 34.5264 15.038C34.6222 14.978 34.7165 14.9179 34.8097 14.8558C34.8395 14.8357 34.8701 14.8167 34.899 14.7969C35.0197 14.7138 35.1371 14.6284 35.2533 14.5397C35.2797 14.5197 35.305 14.4981 35.3319 14.4772C35.4218 14.4069 35.5105 14.3352 35.5969 14.2617C35.6323 14.2313 35.6669 14.2002 35.7031 14.1696C35.7393 14.1389 35.7705 14.1115 35.8036 14.0815C35.8489 14.0396 35.8921 13.9967 35.9368 13.9545C35.9679 13.925 35.9991 13.8962 36.0296 13.8661C36.1336 13.764 36.2357 13.66 36.3349 13.5525C36.3405 13.5471 36.3447 13.5407 36.3506 13.5351C36.4432 13.4329 36.5333 13.3284 36.6226 13.221C36.6317 13.2086 36.6427 13.1974 36.653 13.1854C36.6715 13.1627 36.6875 13.1391 36.7054 13.1165C36.7712 13.0339 36.8351 12.9514 36.8981 12.8667C36.9256 12.8282 36.954 12.7904 36.9823 12.7509C37.0503 12.6542 37.1176 12.5559 37.1834 12.4553C37.1991 12.4311 37.2154 12.4078 37.231 12.3836C37.3097 12.2592 37.3855 12.1323 37.4583 12.0031C37.4784 11.9692 37.4944 11.9348 37.5129 11.9009C37.5483 11.8358 37.5851 11.7709 37.6191 11.7048C37.636 11.6708 37.6525 11.6363 37.6686 11.6019C37.6899 11.5578 37.7112 11.5137 37.7331 11.4697C37.7799 11.369 37.8252 11.2673 37.869 11.1646C37.8847 11.1246 37.9016 11.0877 37.9181 11.0493C37.9753 10.9087 38.0296 10.7661 38.081 10.6217C38.088 10.6 38.095 10.578 38.1023 10.556C38.1439 10.431 38.1843 10.305 38.2219 10.178C38.2348 10.1309 38.2481 10.0837 38.2603 10.036C38.2899 9.92766 38.3174 9.8175 38.3444 9.70674C38.3508 9.67669 38.3595 9.64905 38.3657 9.61901C38.3719 9.58897 38.3784 9.55892 38.3858 9.52868C38.3932 9.49844 38.3977 9.46859 38.4035 9.43895C38.4274 9.32358 38.4487 9.20722 38.4686 9.08965L38.4672 9.09005ZM31.1281 0.444958C31.7814 0.645247 32.2809 0.924651 32.7051 1.31101C33.1294 1.69737 33.4439 2.16604 33.6691 2.69301C33.8943 3.21997 34.031 3.80782 34.0899 4.43272C34.1488 5.05762 34.1366 5.71838 34.0652 6.39555C34.0616 6.34909 34.0559 6.30342 34.0483 6.25535C34.0407 6.20728 34.0304 6.16282 34.0183 6.11515C34.0061 6.06771 33.9915 6.02092 33.9745 5.97495C33.9583 5.92719 33.9393 5.88038 33.9178 5.83474C33.8824 5.75803 33.8428 5.68272 33.801 5.60922C33.7809 5.69474 33.7901 5.78948 33.7674 5.8712C33.7559 5.91125 33.7427 5.94931 33.7304 5.98877C33.7071 6.06528 33.683 6.14199 33.6562 6.21609C33.6411 6.26056 33.6242 6.30242 33.6073 6.34588C33.5818 6.41218 33.5772 6.48729 33.5269 6.54257C33.5068 6.58603 33.4885 6.62909 33.4688 6.67075C33.4545 6.70019 33.4358 6.73504 33.4224 6.76329C33.4067 6.79553 33.3952 6.82177 33.3787 6.85281C33.3669 6.87585 33.3562 6.90088 33.345 6.92332C33.3357 6.93974 33.3248 6.95516 33.3158 6.97139C33.2817 7.03187 33.2468 7.09116 33.211 7.14924C33.1909 7.18449 33.1692 7.21954 33.1479 7.25339C33.1061 7.31729 33.0474 7.3956 33.0033 7.45689C32.985 7.48272 32.9553 7.53019 32.9354 7.55563C32.873 7.63815 32.8214 7.65377 32.7544 7.73068C32.753 7.73168 32.7259 7.76794 32.7247 7.76894C32.7104 7.78536 32.7003 7.79377 32.6844 7.81C32.6299 7.87169 32.5839 7.91755 32.5258 7.97524C32.52 7.98145 32.5081 7.98986 32.5017 7.99527C32.4816 8.01529 32.4596 8.04213 32.4385 8.06196C32.3911 8.10823 32.3424 8.14809 32.2921 8.19155C32.2618 8.21819 32.233 8.24442 32.2019 8.27046C32.153 8.31052 32.1013 8.35058 32.0505 8.38923C32.0179 8.41407 31.9851 8.43951 31.9519 8.46314C31.9292 8.47956 31.9053 8.49178 31.882 8.50821C31.853 8.52823 31.8243 8.55327 31.7945 8.5731C31.7613 8.59513 31.7285 8.61596 31.694 8.63739C31.6381 8.67244 31.5834 8.70769 31.5261 8.74034C31.5019 8.75396 31.4758 8.76518 31.4509 8.7788C31.4424 8.78444 31.4336 8.78966 31.4245 8.79442C31.3562 8.83568 31.289 8.86772 31.2182 8.90217C31.1952 8.91423 31.1714 8.92486 31.1471 8.93402C31.0564 8.97688 30.9647 9.01834 30.871 9.057L30.8573 9.06201C30.8503 9.06481 30.842 9.06781 30.8352 9.07082C30.7926 9.08784 30.7509 9.10166 30.7091 9.11789C30.6546 9.13792 30.5999 9.15794 30.5448 9.17677C30.5428 9.17778 30.5406 9.17859 30.5384 9.17918L30.5249 9.18358C30.4769 9.20041 30.428 9.21643 30.3784 9.23205C30.3231 9.24968 30.2664 9.2667 30.2097 9.28292C30.1694 9.29494 30.1282 9.30616 30.0866 9.31737C30.0568 9.32539 30.0263 9.3334 29.9965 9.34061C29.9909 9.34221 29.9845 9.34401 29.9764 9.34562L29.9629 9.34922C29.9227 9.35923 29.8825 9.37325 29.8411 9.38267C29.8184 9.38768 29.7971 9.39368 29.7751 9.39809C29.7693 9.39989 29.7639 9.39929 29.7583 9.40069C29.7526 9.4021 29.75 9.4023 29.7464 9.4031C29.7371 9.4047 29.7291 9.4031 29.7201 9.4057C29.6973 9.41031 29.6744 9.41852 29.6517 9.42313C29.6 9.43334 29.5493 9.44536 29.4977 9.45437C29.4872 9.45617 29.4788 9.46098 29.4675 9.46258C29.4474 9.46659 29.4255 9.46739 29.405 9.4708C29.3752 9.4758 29.3459 9.48181 29.3169 9.48582C29.2968 9.48862 29.2767 9.48942 29.2566 9.49283C29.2425 9.49443 29.2274 9.49683 29.2125 9.49844C29.1977 9.50004 29.1798 9.50104 29.1635 9.50264C29.1154 9.50885 29.0676 9.51646 29.0201 9.52147C29.0016 9.52327 28.9847 9.51967 28.966 9.52147C28.9534 9.52287 28.9387 9.52848 28.9258 9.52908C28.9101 9.53088 28.8928 9.53208 28.878 9.53309C28.8454 9.53649 28.8142 9.53849 28.7823 9.5405L28.7183 9.5439C28.7004 9.5453 28.6855 9.5415 28.6693 9.5421C28.6676 9.54225 28.6659 9.54225 28.6642 9.5421C28.6602 9.5418 28.6562 9.5418 28.6522 9.5421C28.6302 9.5433 28.6049 9.55191 28.5828 9.55291C28.5607 9.55392 28.5408 9.55291 28.5189 9.55291C28.4969 9.55291 28.4732 9.55532 28.4519 9.55532C28.396 9.55532 28.3399 9.55352 28.2838 9.55271C28.252 9.55271 28.2193 9.55151 28.1867 9.54971C28.1738 9.54971 28.1614 9.54971 28.1479 9.54971C28.138 9.54971 28.1278 9.54831 28.1175 9.54831C28.0624 9.54611 28.0085 9.54651 27.9541 9.5425C27.9354 9.5425 27.9156 9.53949 27.8973 9.53769C27.8791 9.53589 27.8668 9.53609 27.8513 9.53469C27.83 9.53309 27.8085 9.53028 27.788 9.52788C27.7478 9.52447 27.7075 9.51686 27.6683 9.51306C27.6337 9.50845 27.6008 9.50424 27.566 9.50044C27.5555 9.49864 27.5421 9.49924 27.5314 9.49743C27.4811 9.49063 27.4309 9.48221 27.381 9.4742C27.3583 9.47019 27.3356 9.46759 27.3114 9.46419C27.3072 9.46319 27.3036 9.46078 27.2996 9.46018L27.2813 9.45758C27.1976 9.44296 27.1186 9.42673 27.0358 9.40971H27.0313C27.0301 9.4087 27.0287 9.40783 27.0273 9.4071C26.9443 9.38968 26.8693 9.37366 26.786 9.35262C26.781 9.35262 26.7766 9.34882 26.7716 9.34782C26.666 9.32098 26.5655 9.29454 26.4613 9.2621C26.4551 9.26049 26.4442 9.25529 26.438 9.25308L26.3734 9.23465C26.3197 9.21763 26.2693 9.20221 26.2162 9.18358C26.1921 9.17557 26.1655 9.16656 26.142 9.15814C26.1251 9.15254 26.1086 9.14553 26.0929 9.13972C26.0728 9.13251 26.0527 9.1251 26.0326 9.11769C25.9588 9.09105 25.8862 9.06301 25.8135 9.03356C25.7921 9.02555 25.772 9.01754 25.7521 9.00913C25.7409 9.00512 25.7286 8.99932 25.7185 8.99551C25.5253 8.91539 25.3365 8.83027 25.1453 8.73634C25.1326 8.73033 25.1192 8.72552 25.1073 8.71851C25.0995 8.7147 25.0892 8.70829 25.0808 8.70429C25.0594 8.69347 25.0393 8.68426 25.0174 8.67284C24.9458 8.63659 24.8799 8.60314 24.8091 8.56469C24.792 8.55567 24.7721 8.54466 24.7552 8.53585C24.7383 8.52703 24.7178 8.51441 24.6995 8.5046C24.6308 8.46635 24.5662 8.43049 24.4985 8.39104C24.4757 8.37902 24.4506 8.36279 24.4293 8.34978C24.4194 8.34357 24.3997 8.33275 24.3891 8.32714C24.2897 8.26946 24.1991 8.21378 24.1007 8.15269L23.6238 7.85326L23.6272 7.85546L23.6238 7.85326C23.6294 7.85666 23.6351 7.86047 23.6413 7.86388C23.7257 7.91655 23.8108 7.96742 23.895 8.0171L23.9829 8.06737C24.0458 8.10362 24.1096 8.13967 24.1733 8.17412C24.2061 8.19235 24.2387 8.21037 24.271 8.2272C24.3356 8.26225 24.3999 8.2957 24.4639 8.32855C24.4928 8.34317 24.5212 8.35839 24.5503 8.37261C24.643 8.41888 24.7373 8.46334 24.83 8.506L24.8336 8.5074C24.9251 8.54926 25.0184 8.58892 25.1099 8.62758C25.1417 8.6406 25.1728 8.65301 25.204 8.66543C25.2694 8.69147 25.3351 8.71631 25.4005 8.74054C25.4336 8.75256 25.4662 8.76418 25.4996 8.77559C25.5718 8.80103 25.6439 8.82466 25.7163 8.8473C25.7411 8.85531 25.7652 8.86372 25.7899 8.87113C25.8876 8.90097 25.984 8.92761 26.0819 8.95245C26.1605 8.97248 26.2391 8.9909 26.3183 9.00833H26.3206C26.3233 9.00915 26.3261 9.00969 26.329 9.00993C26.4068 9.02715 26.4854 9.04178 26.5634 9.0554C26.591 9.0598 26.6187 9.06321 26.6471 9.06821C26.7008 9.07683 26.7555 9.08464 26.81 9.09265C26.8425 9.09585 26.8753 9.09946 26.9085 9.10326C26.963 9.10954 27.0176 9.11522 27.0722 9.12029L27.1174 9.12369C27.1932 9.1293 27.269 9.13391 27.3448 9.13671C27.3583 9.13671 27.3709 9.13671 27.383 9.13671C27.4634 9.13912 27.5439 9.14012 27.6261 9.13912C27.7443 9.13752 27.8634 9.13171 27.9838 9.12269C28.0039 9.12109 28.024 9.11989 28.0425 9.11749C28.1587 9.10787 28.2744 9.09485 28.3904 9.07743C28.4266 9.07222 28.4626 9.06661 28.4987 9.061C28.5285 9.056 28.5591 9.05139 28.5874 9.04578C28.6347 9.03737 28.6829 9.02836 28.7318 9.01874C28.7579 9.01233 28.7857 9.00733 28.814 9.00172L28.8444 8.99491C28.9047 8.98149 28.9662 8.96727 29.028 8.95145C29.0332 8.95049 29.0384 8.94915 29.0435 8.94744C29.1094 8.93115 29.1753 8.91346 29.2411 8.89436C29.3382 8.86612 29.4339 8.83548 29.528 8.80403C29.5331 8.80197 29.5382 8.80023 29.5435 8.79883C29.6358 8.76678 29.7263 8.73213 29.8164 8.69608C29.8228 8.69367 29.8292 8.69087 29.8365 8.68887C29.9272 8.65141 30.0158 8.61236 30.1035 8.5705C30.1248 8.56108 30.1453 8.55047 30.1652 8.53945C30.2302 8.50801 30.2955 8.47516 30.3587 8.44051C30.389 8.42428 30.419 8.40606 30.4477 8.38923C30.5008 8.35859 30.5533 8.32915 30.6044 8.2959C30.6369 8.27587 30.6689 8.25484 30.7001 8.23381C30.7481 8.20216 30.795 8.16932 30.8424 8.13567C30.8736 8.11343 30.904 8.0902 30.9345 8.06757C30.9812 8.03212 31.0266 7.99587 31.0719 7.95861C32.83 6.51212 32.8634 3.76596 29.7247 4.10785C29.4722 4.1417 29.2219 4.19032 28.9751 4.25346C28.7162 4.31947 28.4615 4.40066 28.2122 4.49661C27.9508 4.5978 27.6953 4.71376 27.4472 4.84391C26.6764 5.24329 25.9454 5.72378 25.246 6.26597C24.5467 6.80815 23.8826 7.40962 23.2442 8.05395C22.6058 8.69828 21.9955 9.38227 21.4054 10.0881C20.8152 10.7939 20.2464 11.5216 19.6919 12.2512L19.6742 11.8965C18.9762 12.7519 18.2466 13.5789 17.4584 14.34C15.3968 16.3271 11.7926 18.8788 7.91154 18.4099C7.89525 18.4039 7.87957 18.3969 7.86328 18.3899C7.84699 18.3829 7.82669 18.3899 7.811 18.3835C7.79532 18.3771 7.78406 18.3747 7.76858 18.368C7.75309 18.3614 7.7346 18.3606 7.71891 18.3538C7.6988 18.3446 7.67367 18.3338 7.65397 18.3244C7.59365 18.2977 7.54076 18.2717 7.48265 18.2425C7.45068 18.2264 7.40705 18.199 7.37508 18.1824C7.35799 18.1728 7.33688 18.1624 7.31979 18.1541C7.26308 18.1225 7.21925 18.086 7.16416 18.0526C7.13018 18.0326 7.10384 17.9993 7.07066 17.9787C7.05638 17.9693 7.02401 17.9787 7.01034 17.9695C6.95585 17.933 6.88648 17.8894 6.83199 17.8511C6.79801 17.8275 6.78112 17.8092 6.74714 17.7834C6.73568 17.7752 6.73005 17.7748 6.71879 17.7664C6.70753 17.758 6.65706 17.755 6.66631 17.7297C6.62449 17.6977 6.59493 17.6622 6.55451 17.6282C6.52134 17.6003 6.48937 17.5799 6.45699 17.5507C6.44493 17.5401 6.43427 17.5274 6.42161 17.5168C6.40894 17.5062 6.4015 17.4942 6.38903 17.483C6.3641 17.4601 6.33032 17.4333 6.30679 17.4097C6.25934 17.3632 6.23541 17.347 6.18937 17.2983C6.18454 17.2927 6.17308 17.2807 6.16926 17.2759L6.15498 17.2504L6.14373 17.2334L6.15498 17.2504C5.99413 17.0958 5.84514 16.8943 5.70057 16.7097C5.30526 16.2089 4.98998 15.6023 4.86753 14.887C4.74508 14.1718 4.81646 13.3488 5.1991 12.4211C5.20251 12.4595 5.19186 12.4878 5.1991 12.5262C5.20271 12.5168 5.2182 12.4956 5.22182 12.4862C5.24856 12.4156 5.23931 12.3782 5.26847 12.3099C5.27048 12.3041 5.25721 12.2698 5.26002 12.2648C5.27068 12.2408 5.31089 12.23 5.32215 12.2047C5.35694 12.128 5.38931 12.0645 5.42691 11.9904C5.43254 11.9788 5.42088 11.9003 5.45385 11.9201C5.46531 11.8985 5.47798 11.8739 5.48924 11.8524C5.52322 11.7897 5.57188 11.7152 5.60807 11.655C5.62818 11.6221 5.65633 11.5879 5.67744 11.5562C5.71766 11.4947 5.744 11.4521 5.78502 11.3928C5.80331 11.3667 5.82523 11.3409 5.84534 11.3153C5.85318 11.3056 5.87208 11.2896 5.87932 11.28C5.98731 11.1324 6.10549 10.9925 6.233 10.8612C6.23883 10.855 6.26135 10.8464 6.26698 10.8402C6.28468 10.8225 6.30599 10.8063 6.32368 10.7893C6.37254 10.7418 6.41276 10.6958 6.46443 10.6491C6.49278 10.6245 6.52878 10.5926 6.55773 10.569C6.58045 10.5504 6.61142 10.5185 6.63414 10.4999C6.66249 10.4766 6.69446 10.4464 6.72341 10.4238C6.75237 10.4011 6.78775 10.3707 6.81671 10.3491C6.87844 10.305 6.9472 10.2119 7.0023 10.2195C7.02341 10.2053 7.04874 10.1942 7.07006 10.1794C7.15511 10.1253 7.22368 10.0721 7.31134 10.023C7.31496 10.0212 7.33467 10.038 7.33829 10.0356C7.35598 10.0266 7.36583 10.0088 7.38353 9.99896C7.43661 9.97032 7.48748 9.9549 7.54197 9.92705C7.55846 9.91924 7.57877 9.89962 7.59445 9.8918C7.62481 9.87658 7.65879 9.85856 7.69076 9.84394C7.75289 9.81509 7.81784 9.79647 7.88178 9.76923C7.91636 9.75521 7.95517 9.74059 7.98935 9.72697C8.05671 9.70053 8.12085 9.66888 8.18881 9.64525C8.22078 9.63383 8.25255 9.63764 8.28372 9.62682C8.38285 9.59357 8.47112 9.59037 8.57246 9.56173C8.6738 9.53309 8.77634 9.50464 8.87708 9.48041C8.97781 9.45617 9.07815 9.43234 9.17667 9.41191C9.2752 9.39148 9.37433 9.37346 9.47205 9.35723C9.56977 9.34101 9.66608 9.32779 9.76239 9.31597L10.5196 9.22344C10.4312 9.23385 10.3419 9.24687 10.252 9.26149C10.1621 9.27611 10.0726 9.29334 9.98136 9.31197C9.89007 9.33059 9.79859 9.35202 9.70509 9.37426C9.61159 9.39649 9.5201 9.42213 9.426 9.44856C9.3319 9.475 9.24041 9.50525 9.14973 9.53629C9.12138 9.5457 9.09303 9.55632 9.06468 9.56673C9.00235 9.58877 8.94001 9.6124 8.87969 9.63624C8.84652 9.64945 8.81455 9.66227 8.78278 9.67629C8.72527 9.70053 8.66716 9.72596 8.61207 9.7518C8.5809 9.76622 8.55034 9.78024 8.52058 9.79486C8.45765 9.82551 8.39391 9.85836 8.33298 9.8908C8.31287 9.90282 8.29035 9.91304 8.26985 9.92505C8.18942 9.97012 8.10899 10.0176 8.03198 10.0673C8.01187 10.0797 7.99357 10.0937 7.97387 10.1063C7.91636 10.1448 7.85825 10.1842 7.80296 10.2265C7.77541 10.2465 7.74927 10.2665 7.72374 10.2866C7.67488 10.3234 7.62803 10.3617 7.58058 10.4001C7.55444 10.4222 7.5283 10.4448 7.50196 10.4674C7.45591 10.5091 7.40926 10.552 7.36382 10.5956C7.3419 10.6171 7.31918 10.6381 7.29787 10.6599C7.23353 10.7256 7.16979 10.7929 7.10806 10.8634C7.10665 10.8652 7.10605 10.867 7.10384 10.8684C5.29038 13.2176 6.84466 15.3655 10.1897 14.578C10.4396 14.513 10.6856 14.4338 10.9264 14.3406C11.181 14.2425 11.43 14.1304 11.6722 14.0049C12.4386 13.6084 13.1675 13.1297 13.8618 12.5911C14.5561 12.0525 15.2199 11.4495 15.8552 10.8085C16.4906 10.1676 17.1005 9.48101 17.6906 8.77359C18.2807 8.06617 18.8502 7.33651 19.4063 6.60426L19.4234 6.96157C20.1238 6.10033 20.8571 5.26793 21.6497 4.50122C22.4423 3.73451 23.2958 3.0331 24.2346 2.43704C25.1975 1.82045 26.2398 1.3365 27.3329 0.998358C28.431 0.66107 29.6342 0.454772 30.9647 0.419922H30.9769L30.9876 0.423327C31.0244 0.421925 31.0918 0.44576 31.1284 0.445359L31.1281 0.444958ZM11.9084 2.72966C11.7136 2.67598 11.5159 2.62951 11.3141 2.58946C11.1122 2.5494 10.9053 2.51535 10.6942 2.48831C10.483 2.46127 10.2701 2.44164 10.0489 2.42902C9.82774 2.41641 9.60556 2.4116 9.37593 2.4144C9.14631 2.41721 8.91548 2.42762 8.67742 2.44545C8.43935 2.46327 8.19485 2.49071 7.94793 2.52556C7.70102 2.56041 7.44526 2.60308 7.18628 2.65495C6.9273 2.70683 6.66349 2.76811 6.39225 2.83802C6.25633 2.87246 6.12161 2.91152 5.9885 2.95398C5.94607 2.9674 5.90425 2.98222 5.86243 2.99624C5.77114 3.02689 5.67965 3.05773 5.58897 3.09118C5.54011 3.10981 5.49185 3.12924 5.4432 3.14766C5.36015 3.18091 5.2759 3.21556 5.19367 3.25121C5.14481 3.27244 5.09534 3.29407 5.04568 3.31611C4.96284 3.35396 4.8814 3.39402 4.79977 3.43428C4.768 3.4501 4.73603 3.46352 4.70426 3.47954C4.69079 3.48675 4.67732 3.49576 4.66244 3.50318C4.56974 3.55104 4.47906 3.60212 4.38758 3.65399C4.35581 3.67262 4.32183 3.68964 4.29046 3.70827C4.16801 3.78058 4.04756 3.85508 3.92853 3.9336C3.90179 3.95122 3.87625 3.97045 3.84931 3.98848C3.77351 4.03995 3.6971 4.09183 3.62129 4.1461C3.60702 4.15692 3.59294 4.16874 3.57867 4.17955C3.53845 4.2094 3.49824 4.24124 3.45803 4.27229C3.38363 4.3285 3.31044 4.38625 3.23846 4.44554C3.21996 4.46156 3.19945 4.47618 3.18035 4.492C3.15702 4.51203 3.13491 4.53206 3.11218 4.55209C3.04362 4.61218 2.97485 4.67226 2.90749 4.73335C2.86245 4.7642 2.82707 4.80806 2.78685 4.84572C2.71728 4.91241 2.64329 4.9739 2.57613 5.0438C2.54195 5.07905 2.50374 5.1149 2.47037 5.15096C2.3819 5.24489 2.30227 5.34063 2.21802 5.43957C2.20737 5.45259 2.1945 5.46481 2.18304 5.47723C2.08894 5.58979 1.99926 5.70436 1.90998 5.82253C1.90435 5.82974 1.90194 5.84376 1.89571 5.85117C1.8756 5.87981 1.84886 5.90424 1.82835 5.93248C1.76803 6.01661 1.71052 6.09933 1.65322 6.18625C1.62205 6.23192 1.58948 6.27959 1.55992 6.32645C1.53036 6.37332 1.50463 6.4276 1.47487 6.47547C1.45476 6.50992 1.43003 6.53756 1.40932 6.57281C1.38036 6.62228 1.35241 6.67296 1.32406 6.72443C1.27721 6.80915 1.22876 6.89187 1.18331 6.9788C1.15798 7.02847 1.13264 7.08615 1.10791 7.13723C1.05966 7.23477 1.01341 7.3251 0.968772 7.42564C0.95329 7.45949 0.939818 7.49975 0.924939 7.5342C0.920102 7.54537 0.914527 7.55621 0.90825 7.56665C0.893371 7.6045 0.881708 7.63755 0.865422 7.6748C0.839282 7.7403 0.811334 7.80479 0.786602 7.87028C0.77876 7.89031 0.770315 7.91295 0.762474 7.93317C0.744779 7.98064 0.725879 8.03031 0.710195 8.07838C0.694512 8.12645 0.68104 8.17012 0.665356 8.21859C0.654097 8.25204 0.641027 8.28949 0.63037 8.32334C0.614888 8.37361 0.602421 8.42569 0.587542 8.47656C0.57769 8.51041 0.565424 8.54626 0.555371 8.58131C0.541296 8.63038 0.526819 8.67825 0.515157 8.72792C0.503495 8.77759 0.489219 8.82967 0.477959 8.88054C0.472128 8.90318 0.469313 8.92301 0.463683 8.94544C0.439554 9.04879 0.423469 9.15594 0.403362 9.26229C0.403362 9.2639 0.403362 9.2657 0.403362 9.2679C0.403256 9.2685 0.403256 9.26911 0.403362 9.2697C0.383255 9.37806 0.358523 9.48442 0.340627 9.59437C0.336405 9.61881 0.334595 9.64585 0.330373 9.67008C0.328161 9.68671 0.321526 9.70033 0.319515 9.71675C0.315896 9.74018 0.315695 9.76482 0.31288 9.78866C0.306446 9.83592 0.30162 9.87378 0.295789 9.92205C0.288751 9.98013 0.281111 10.041 0.274676 10.0991C0.271258 10.1364 0.266835 10.1772 0.263416 10.2153C0.261808 10.2333 0.257988 10.2553 0.257183 10.274C0.246527 10.3875 0.239288 10.5007 0.233658 10.6171C0.233658 10.6239 0.23225 10.6371 0.23225 10.6439C0.23225 10.6695 0.23225 10.6912 0.230843 10.7162C0.228028 10.8015 0.218377 10.875 0.217773 10.9615C0.217773 10.9978 0.217773 11.0387 0.217773 11.0753C0.217773 11.1184 0.217773 11.1638 0.217773 11.2069C0.217773 11.247 0.220588 11.2948 0.221996 11.3357C0.221996 11.4182 0.229234 11.5033 0.233457 11.5871C0.233457 11.6157 0.233457 11.6433 0.235669 11.6722C0.235669 11.6818 0.236674 11.6922 0.236674 11.7008C0.244516 11.8364 0.243712 11.9584 0.256781 12.097C0.256781 12.1064 0.268242 12.1282 0.269046 12.137C0.272465 12.1731 0.251754 12.2286 0.256781 12.2652C0.265226 12.358 0.253765 12.4835 0.287947 12.5472C0.291968 12.5773 0.298403 12.6274 0.302022 12.6572C0.309864 12.7115 0.328161 12.7573 0.336003 12.8122C0.343845 12.8671 0.366365 12.8969 0.376217 12.9538C0.386069 13.0107 0.388281 13.0784 0.398938 13.1331C0.409595 13.1878 0.419045 13.2465 0.429903 13.3029C0.436337 13.3358 0.444782 13.3654 0.452021 13.3989C0.459259 13.4323 0.463281 13.4558 0.469715 13.487C0.476149 13.5182 0.486605 13.5539 0.493039 13.5855C0.499473 13.6172 0.50832 13.6434 0.516162 13.6751C0.524004 13.7067 0.530639 13.7402 0.539687 13.7706L1.94718 13.0161C1.9138 12.8683 1.88405 12.7223 1.85569 12.5765C1.84644 12.5245 1.83726 12.473 1.82815 12.4219C1.81045 12.3185 1.79336 12.2154 1.77848 12.1134C1.77145 12.0623 1.763 12.0115 1.75717 11.9612C1.74108 11.8466 1.72822 11.7331 1.71696 11.6207C1.71273 11.5875 1.70771 11.554 1.70489 11.5206C1.69142 11.3741 1.68157 11.2301 1.67453 11.0877C1.67453 11.0607 1.67453 11.0347 1.67171 11.0076C1.66669 10.8939 1.66448 10.7815 1.66387 10.6703C1.66387 10.6303 1.66387 10.5902 1.66387 10.5488C1.66508 10.4356 1.66729 10.3226 1.67151 10.2109C1.67292 10.1888 1.67292 10.1668 1.67433 10.1454C1.67996 10.0132 1.69001 9.88299 1.70268 9.7542C1.70549 9.72036 1.70911 9.68651 1.71273 9.65266C1.72319 9.55412 1.73385 9.45658 1.74812 9.35984C1.75295 9.32378 1.75797 9.28693 1.763 9.25068C1.78311 9.1259 1.80321 9.00212 1.82594 8.88014C1.82734 8.87574 1.82815 8.87113 1.82956 8.86652C1.85208 8.75076 1.87842 8.63759 1.90536 8.52483C1.91662 8.47716 1.92929 8.43089 1.94215 8.38463C1.96226 8.30712 1.98237 8.2302 2.00529 8.15409C2.01937 8.10696 2.03371 8.06023 2.04832 8.01389C2.07104 7.93878 2.09658 7.86468 2.12211 7.79057C2.1376 7.7453 2.15247 7.70184 2.16876 7.65718C2.19711 7.57926 2.22767 7.50235 2.25944 7.42504C2.27432 7.38879 2.2878 7.35093 2.30408 7.31468C2.32037 7.27843 2.33806 7.23957 2.35375 7.20232C2.39557 7.10758 2.43799 7.01405 2.48324 6.92191C2.50596 6.87545 2.52948 6.83078 2.55281 6.78512C2.59463 6.705 2.63705 6.62489 2.68169 6.54617C2.70783 6.4997 2.73337 6.45464 2.76091 6.40897C2.80636 6.33193 2.85294 6.25595 2.90066 6.18104C2.9276 6.13938 2.95515 6.09632 2.9827 6.05446C3.03658 5.97435 3.09248 5.89523 3.14918 5.81612C3.17251 5.78387 3.19523 5.75062 3.22016 5.71898C3.30059 5.61002 3.38463 5.50373 3.4723 5.40012C3.48296 5.3879 3.49241 5.37768 3.50266 5.36567C3.57987 5.27473 3.6593 5.18541 3.74073 5.09908C3.77129 5.06623 3.80367 5.03459 3.83564 5.00194C3.89596 4.93805 3.9595 4.87516 4.02344 4.81367C4.06023 4.77862 4.09783 4.74457 4.13463 4.71032C4.19696 4.65304 4.25989 4.59796 4.32303 4.54308C4.36123 4.51023 4.39944 4.47698 4.43845 4.44534C4.505 4.39046 4.57316 4.33678 4.64112 4.28511C4.67792 4.25686 4.71472 4.22822 4.75232 4.20058C4.83275 4.1395 4.918 4.08181 5.00164 4.02413C5.02577 4.0077 5.0491 3.99028 5.07383 3.97506C5.18301 3.90275 5.2934 3.83325 5.4062 3.76756C5.43515 3.74973 5.46551 3.73431 5.49527 3.71729C5.57892 3.66942 5.66317 3.62235 5.74822 3.57828C5.79004 3.55685 5.83186 3.53602 5.87429 3.51499C5.94949 3.47774 6.02529 3.44169 6.1011 3.40704C6.14634 3.38701 6.19178 3.36698 6.23843 3.34695C6.31283 3.3147 6.38863 3.28366 6.46504 3.25362C6.51048 3.23559 6.55592 3.21756 6.60116 3.19994C6.684 3.17009 6.76624 3.14125 6.84968 3.11361C6.8899 3.10099 6.9283 3.08637 6.96811 3.07355C7.09057 3.0353 7.21463 2.99905 7.33849 2.9674C7.58781 2.90291 7.83091 2.84723 8.06958 2.79956C8.30825 2.75189 8.54069 2.71183 8.7689 2.67939C8.99712 2.64694 9.22071 2.62351 9.43967 2.60588C9.65864 2.58825 9.87318 2.57984 10.0831 2.57704C10.293 2.57423 10.5003 2.57984 10.7014 2.59106C10.9025 2.60227 11.1017 2.6207 11.2952 2.64554C11.4886 2.67037 11.6782 2.70062 11.8646 2.73807C12.051 2.77552 12.2329 2.81819 12.4115 2.86686L11.9084 2.72966Z"
    fill="url(#paint0_linear_3056_10990)" />
  <path fill-rule="evenodd" clip-rule="evenodd"
    d="M9.54281 3.7316C9.9971 3.72631 10.4511 3.75584 10.9008 3.81993C11.3533 3.88443 11.7998 3.98489 12.2362 4.12036C13.1314 4.39818 13.9723 4.82643 14.7226 5.38659C15.9628 6.31273 17.0462 7.42313 18.0702 8.5764C19.0943 9.72966 20.0552 10.9242 21.0547 12.0238C22.0542 13.1234 23.0905 14.123 24.2616 14.8891C25.4326 15.6552 26.7366 16.1864 28.2737 16.3448C28.3849 16.3566 28.4956 16.3665 28.6059 16.3747C28.7159 16.3827 28.8249 16.3893 28.9347 16.3947C29.0444 16.4001 29.1528 16.4033 29.2606 16.4049C29.3684 16.4065 29.4774 16.4065 29.5835 16.4049C31.0342 16.3849 32.3903 16.078 33.5866 15.5266C34.783 14.9752 35.8221 14.1779 36.6377 13.1788C37.4532 12.1798 38.0452 10.9757 38.3498 9.61269C38.6544 8.24973 38.6691 6.72212 38.3297 5.07774C38.8993 6.75316 39.0644 8.42498 38.8887 9.99645C38.7131 11.5645 38.198 13.0326 37.4082 14.3027C36.6184 15.5727 35.5565 16.6439 34.2813 17.4218C33.0061 18.1997 31.5202 18.6848 29.8839 18.7801C29.8357 18.7829 29.7882 18.7851 29.7399 18.7875C29.6917 18.7899 29.6458 18.792 29.5978 18.794C29.5497 18.796 29.5041 18.7968 29.457 18.7978C29.41 18.7988 29.3633 18.7996 29.3163 18.7998C28.2651 18.8174 27.2164 18.6911 26.1997 18.4244C25.2386 18.1719 24.3498 17.8035 23.515 17.3585C22.6802 16.9134 21.9 16.3905 21.1554 15.8291C20.4109 15.2677 19.7025 14.666 19.0134 14.0649C18.3244 13.4639 17.6518 12.859 16.9826 12.2934C16.3135 11.7278 15.6423 11.1996 14.9566 10.7475C14.271 10.2955 13.5693 9.92074 12.8321 9.66096C12.095 9.40119 11.3241 9.25638 10.5023 9.26599C10.3487 9.26826 10.1936 9.27561 10.037 9.28802C9.88048 9.30044 9.72157 9.31907 9.56031 9.34391C9.39945 9.36754 9.23658 9.39819 9.0715 9.43424C8.90643 9.47029 8.73994 9.51335 8.57003 9.56202C8.13687 9.68373 7.71913 9.85449 7.32501 10.071C6.93988 10.2831 6.58629 10.5476 6.27441 10.8569C5.95395 11.177 5.68424 11.5438 5.47455 11.9447C4.92422 12.9916 4.81866 14.0365 5.09252 15.1944C5.2125 15.7087 5.42159 16.1983 5.71041 16.641C5.97778 17.0487 6.31064 17.4098 6.69566 17.7098C7.06545 17.9992 7.47506 18.2342 7.91193 18.4076C7.57675 18.3826 7.26649 18.3557 6.97253 18.3183C6.68957 18.284 6.40867 18.2346 6.13105 18.1703C5.85808 18.1073 5.59013 18.0244 5.32938 17.9223C5.04808 17.8112 4.77513 17.6803 4.51263 17.5303C3.67217 17.0557 2.93925 16.4133 2.35985 15.6432C1.78046 14.8731 1.3671 13.992 1.14571 13.0553C0.927362 12.1364 0.9004 11.1827 1.06648 10.253C1.24037 9.28401 1.62264 8.36394 2.18705 7.55592C2.60202 6.95983 3.09117 6.41854 3.6428 5.945C4.18682 5.47783 4.78488 5.07702 5.42429 4.75107C6.06033 4.42583 6.73183 4.17455 7.42554 4.00219C8.11836 3.83034 8.82889 3.73926 9.54281 3.7308V3.7316ZM9.278 1.0079e-05C7.58419 0.0188373 6.06088 0.462278 4.76136 1.22498C3.46184 1.98768 2.38872 3.06764 1.59128 4.35891C0.793833 5.65017 0.276881 7.15014 0.0838532 8.75606C-0.108772 10.3584 0.0257438 12.0656 0.536463 13.7709C0.199268 12.2996 0.149 10.945 0.326143 9.72506C0.503286 8.50509 0.907036 7.41632 1.47727 6.48177C2.57838 4.6779 4.34225 3.37284 6.39405 2.84392C6.66402 2.77382 6.9287 2.7128 7.18808 2.66085C7.44746 2.60891 7.70108 2.56578 7.94893 2.53147C8.19765 2.49702 8.44055 2.46998 8.67861 2.45135C8.91668 2.43272 9.14972 2.42271 9.37774 2.42031C9.81953 2.4144 10.2612 2.4391 10.6996 2.49421C11.5063 2.59624 12.2947 2.81064 13.0416 3.13113C13.4007 3.28522 13.7498 3.46114 14.0872 3.65789C15.0407 4.2139 15.9029 4.92452 16.7188 5.72248C17.5348 6.52043 18.3055 7.40491 19.0764 8.30801C19.8473 9.21111 20.617 10.133 21.4351 11.0079C22.2533 11.8828 23.1169 12.7088 24.0768 13.4212C24.4499 13.6996 24.8469 13.9449 25.2631 14.1541C25.6694 14.359 26.0923 14.5293 26.5274 14.6632C26.9574 14.7956 27.3974 14.8935 27.843 14.956C28.2865 15.0176 28.7341 15.0456 29.1818 15.0395C29.8863 15.0297 30.5874 14.9387 31.2709 14.7683C31.9574 14.5984 32.6222 14.3511 33.2524 14.0313C33.8871 13.7091 34.4818 13.3144 35.0247 12.855C35.5763 12.3877 36.0676 11.8541 36.4875 11.2665C37.1691 10.3167 37.5975 9.21008 37.7325 8.05034C37.8676 6.8906 37.7048 5.7157 37.2596 4.63571C36.968 3.9252 36.5587 3.26848 36.0489 2.6929C35.7287 2.33105 35.3698 2.00518 34.9784 1.7211C34.5983 1.44563 34.1894 1.21199 33.7587 1.02429C33.3268 0.836562 32.8771 0.692305 32.4164 0.593668C31.9428 0.492492 31.461 0.434104 30.9769 0.419215C31.365 0.537787 31.7555 0.746288 32.1188 1.0339C32.5021 1.34068 32.8313 1.70907 33.0928 2.12388C33.3855 2.58806 33.5979 3.09786 33.7211 3.63206C33.9974 4.81517 33.8848 5.85146 33.3132 6.9138C33.0984 7.31305 32.8252 7.6783 32.5027 7.99756C32.1895 8.30486 31.8353 8.56771 31.4501 8.77869C31.057 8.99351 30.6409 9.16349 30.2097 9.28542C30.0582 9.32895 29.908 9.36701 29.7593 9.39959C29.6105 9.43217 29.463 9.45927 29.3169 9.4809C29.1703 9.50253 29.0257 9.51996 28.882 9.53078C28.7382 9.54159 28.5957 9.5494 28.4547 9.55081C27.0565 9.56823 25.77 9.11678 24.5198 8.40094C23.2695 7.68511 22.0528 6.70449 20.8018 5.66459C19.5507 4.62469 18.2594 3.5249 16.8618 2.57573C15.4641 1.62656 13.9539 0.824401 12.2665 0.383164C12.0051 0.315266 11.7474 0.256581 11.493 0.20731C11.2386 0.158038 10.9851 0.117179 10.7358 0.0859344C10.4864 0.0546892 10.2405 0.0312553 9.99764 0.0170348C9.75474 0.00281425 9.51446 -0.00359513 9.278 1.0079e-05Z"
    fill="url(#paint1_radial_3056_10990)" />
  <path
    d="M46.9474 0.297852H51.0646V8.3927L55.6164 0.297852H59.7806L55.0762 7.4325L60.1791 19.7H55.9233L52.6265 10.767L51.0685 13.1037V19.7H46.9474V0.297852Z"
    fill="#414042" />
  <path
    d="M61.5038 0.297852H72.8965V3.62453H65.6218V8.13055H71.2767V11.4572H65.6218V16.2309H72.8965V19.6992H61.5038V0.297852Z"
    fill="#414042" />
  <path d="M74.6345 0.297852H78.7518V16.0626H84.7911V19.7015H74.6345V0.297852Z" fill="#414042" />
  <path d="M86.3216 0.297852H90.4397V16.0626H96.4774V19.7015H86.3216V0.297852Z" fill="#414042" />
  <path d="M95.2914 0.297852H106.973V3.93756H103.143V19.7015H99.025V3.93756H95.2914V0.297852Z"
    fill="#414042" />
  <path
    d="M121.324 9.99335C121.324 16.6655 119.059 20.001 114.529 20C112.279 20 110.581 19.1496 109.437 17.4488C108.292 15.7481 107.72 13.2629 107.721 9.99335C107.721 3.33111 109.986 0 114.515 0C116.73 0 118.419 0.834736 119.581 2.50421C120.743 4.17368 121.324 6.67006 121.324 9.99335ZM116.986 9.99335C116.986 7.37697 116.79 5.6355 116.397 4.76894C116.004 3.90238 115.377 3.46884 114.518 3.46832C113.667 3.46832 113.045 3.90422 112.651 4.77599C112.257 5.64777 112.059 7.38688 112.057 9.99335C112.057 12.5497 112.251 14.2792 112.64 15.1818C113.029 16.0843 113.654 16.5343 114.514 16.5317C115.366 16.5317 115.99 16.1007 116.388 15.2389C116.786 14.377 116.986 12.6285 116.989 9.99335H116.986Z"
    fill="#414042" />
  <path
    d="M123.761 0.297852H128.332L133.15 12.3493V0.297852H136.334V19.7055H132.654L126.945 5.66077V19.7055H123.76L123.761 0.297852Z"
    fill="#414042" />
  <defs>
    <linearGradient id="paint0_linear_3056_10990" x1="7.2096" y1="9.44256" x2="34.3664" y2="9.44256"
      gradientUnits="userSpaceOnUse">
      <stop stop-color="#09304D" />
      <stop offset="0.45" stop-color="#0572B6" />
      <stop offset="1" stop-color="#09304D" />
    </linearGradient>
    <radialGradient id="paint1_radial_3056_10990" cx="0" cy="0" r="1" gradientUnits="userSpaceOnUse"
      gradientTransform="translate(19.8672 9.58866) scale(20.0954 20.0173)">
      <stop stop-color="#71CBDC" />
      <stop offset="0.15" stop-color="#6EC6D9" />
      <stop offset="0.32" stop-color="#66B7D1" />
      <stop offset="0.51" stop-color="#599FC4" />
      <stop offset="0.71" stop-color="#467EB1" />
      <stop offset="0.92" stop-color="#2E5399" />
      <stop offset="1" stop-color="#24408F" />
    </radialGradient>
  </defs>
</svg>