<svg width="39" height="19" viewBox="0 0 39 19" fill="none" xmlns="http://www.w3.org/2000/svg">
<path fill-rule="evenodd" clip-rule="evenodd" d="M9.54281 3.7316C9.9971 3.72631 10.4511 3.75584 10.9008 3.81993C11.3533 3.88443 11.7998 3.98489 12.2362 4.12036C13.1314 4.39818 13.9723 4.82643 14.7226 5.38659C15.9628 6.31273 17.0462 7.42313 18.0702 8.5764C19.0943 9.72966 20.0552 10.9242 21.0547 12.0238C22.0542 13.1234 23.0905 14.123 24.2616 14.8891C25.4326 15.6552 26.7366 16.1864 28.2737 16.3448C28.3849 16.3566 28.4956 16.3665 28.6059 16.3747C28.7159 16.3827 28.8249 16.3893 28.9347 16.3947C29.0444 16.4001 29.1528 16.4033 29.2606 16.4049C29.3684 16.4065 29.4774 16.4065 29.5835 16.4049C31.0342 16.3849 32.3903 16.078 33.5866 15.5266C34.783 14.9752 35.8221 14.1779 36.6377 13.1788C37.4532 12.1798 38.0452 10.9757 38.3498 9.61269C38.6544 8.24973 38.6691 6.72212 38.3297 5.07774C38.8993 6.75316 39.0644 8.42498 38.8887 9.99645C38.7131 11.5645 38.198 13.0326 37.4082 14.3027C36.6184 15.5727 35.5565 16.6439 34.2813 17.4218C33.0061 18.1997 31.5202 18.6848 29.8839 18.7801C29.8357 18.7829 29.7882 18.7851 29.7399 18.7875C29.6917 18.7899 29.6458 18.792 29.5978 18.794C29.5497 18.796 29.5041 18.7968 29.457 18.7978C29.41 18.7988 29.3633 18.7996 29.3163 18.7998C28.2651 18.8174 27.2164 18.6911 26.1997 18.4244C25.2386 18.1719 24.3498 17.8035 23.515 17.3585C22.6802 16.9134 21.9 16.3905 21.1554 15.8291C20.4109 15.2677 19.7025 14.666 19.0134 14.0649C18.3244 13.4639 17.6518 12.859 16.9826 12.2934C16.3135 11.7278 15.6423 11.1996 14.9566 10.7475C14.271 10.2955 13.5693 9.92074 12.8321 9.66096C12.095 9.40119 11.3241 9.25638 10.5023 9.26599C10.3487 9.26826 10.1936 9.27561 10.037 9.28802C9.88048 9.30044 9.72157 9.31907 9.56031 9.34391C9.39945 9.36754 9.23658 9.39819 9.0715 9.43424C8.90643 9.47029 8.73994 9.51335 8.57003 9.56202C8.13687 9.68373 7.71913 9.85449 7.32501 10.071C6.93988 10.2831 6.58629 10.5476 6.27441 10.8569C5.95395 11.177 5.68424 11.5438 5.47455 11.9447C4.92422 12.9916 4.81866 14.0365 5.09252 15.1944C5.2125 15.7087 5.42159 16.1983 5.71041 16.641C5.97778 17.0487 6.31064 17.4098 6.69566 17.7098C7.06545 17.9992 7.47506 18.2342 7.91193 18.4076C7.57675 18.3826 7.26649 18.3557 6.97253 18.3183C6.68957 18.284 6.40867 18.2346 6.13105 18.1703C5.85808 18.1073 5.59013 18.0244 5.32938 17.9223C5.04808 17.8112 4.77513 17.6803 4.51263 17.5303C3.67217 17.0557 2.93925 16.4133 2.35985 15.6432C1.78046 14.8731 1.3671 13.992 1.14571 13.0553C0.927362 12.1364 0.9004 11.1827 1.06648 10.253C1.24037 9.28401 1.62264 8.36394 2.18705 7.55592C2.60202 6.95983 3.09117 6.41854 3.6428 5.945C4.18682 5.47783 4.78488 5.07702 5.42429 4.75107C6.06033 4.42583 6.73183 4.17455 7.42554 4.00219C8.11836 3.83034 8.82889 3.73926 9.54281 3.7308V3.7316ZM9.278 1.0079e-05C7.58419 0.0188373 6.06088 0.462278 4.76136 1.22498C3.46184 1.98768 2.38872 3.06764 1.59128 4.35891C0.793833 5.65017 0.276881 7.15014 0.0838532 8.75606C-0.108772 10.3584 0.0257438 12.0656 0.536463 13.7709C0.199268 12.2996 0.149 10.945 0.326143 9.72506C0.503286 8.50509 0.907036 7.41632 1.47727 6.48177C2.57838 4.6779 4.34225 3.37284 6.39405 2.84392C6.66402 2.77382 6.9287 2.7128 7.18808 2.66085C7.44746 2.60891 7.70108 2.56578 7.94893 2.53147C8.19765 2.49702 8.44055 2.46998 8.67861 2.45135C8.91668 2.43272 9.14972 2.42271 9.37774 2.42031C9.81953 2.4144 10.2612 2.4391 10.6996 2.49421C11.5063 2.59624 12.2947 2.81064 13.0416 3.13113C13.4007 3.28522 13.7498 3.46114 14.0872 3.65789C15.0407 4.2139 15.9029 4.92452 16.7188 5.72248C17.5348 6.52043 18.3055 7.40491 19.0764 8.30801C19.8473 9.21111 20.617 10.133 21.4351 11.0079C22.2533 11.8828 23.1169 12.7088 24.0768 13.4212C24.4499 13.6996 24.8469 13.9449 25.2631 14.1541C25.6694 14.359 26.0923 14.5293 26.5274 14.6632C26.9574 14.7956 27.3974 14.8935 27.843 14.956C28.2865 15.0176 28.7341 15.0456 29.1818 15.0395C29.8863 15.0297 30.5874 14.9387 31.2709 14.7683C31.9574 14.5984 32.6222 14.3511 33.2524 14.0313C33.8871 13.7091 34.4818 13.3144 35.0247 12.855C35.5763 12.3877 36.0676 11.8541 36.4875 11.2665C37.1691 10.3167 37.5975 9.21008 37.7325 8.05034C37.8676 6.8906 37.7048 5.7157 37.2596 4.63571C36.968 3.9252 36.5587 3.26848 36.0489 2.6929C35.7287 2.33105 35.3698 2.00518 34.9784 1.7211C34.5983 1.44563 34.1894 1.21199 33.7587 1.02429C33.3268 0.836562 32.8771 0.692305 32.4164 0.593668C31.9428 0.492492 31.461 0.434104 30.9769 0.419215C31.365 0.537787 31.7555 0.746288 32.1188 1.0339C32.5021 1.34068 32.8313 1.70907 33.0928 2.12388C33.3855 2.58806 33.5979 3.09786 33.7211 3.63206C33.9974 4.81517 33.8848 5.85146 33.3132 6.9138C33.0984 7.31305 32.8252 7.6783 32.5027 7.99756C32.1895 8.30486 31.8353 8.56771 31.4501 8.77869C31.057 8.99351 30.6409 9.16349 30.2097 9.28542C30.0582 9.32895 29.908 9.36701 29.7593 9.39959C29.6105 9.43217 29.463 9.45927 29.3169 9.4809C29.1703 9.50253 29.0257 9.51996 28.882 9.53078C28.7382 9.54159 28.5957 9.5494 28.4547 9.55081C27.0565 9.56823 25.77 9.11678 24.5198 8.40094C23.2695 7.68511 22.0528 6.70449 20.8018 5.66459C19.5507 4.62469 18.2594 3.5249 16.8618 2.57573C15.4641 1.62656 13.9539 0.824401 12.2665 0.383164C12.0051 0.315266 11.7474 0.256581 11.493 0.20731C11.2386 0.158038 10.9851 0.117179 10.7358 0.0859344C10.4864 0.0546892 10.2405 0.0312553 9.99764 0.0170348C9.75474 0.00281425 9.51446 -0.00359513 9.278 1.0079e-05Z" fill="url(#paint0_radial_3006_10993)"/>
<defs>
<radialGradient id="paint0_radial_3006_10993" cx="0" cy="0" r="1" gradientUnits="userSpaceOnUse" gradientTransform="translate(19.8672 9.58866) scale(20.0954 20.0173)">
<stop stop-color="#71CBDC"/>
<stop offset="0.15" stop-color="#6EC6D9"/>
<stop offset="0.32" stop-color="#66B7D1"/>
<stop offset="0.51" stop-color="#599FC4"/>
<stop offset="0.71" stop-color="#467EB1"/>
<stop offset="0.92" stop-color="#2E5399"/>
<stop offset="1" stop-color="#24408F"/>
</radialGradient>
</defs>
</svg>
